<?xml version="1.0" encoding="iso-8859-1"?>
<!-- Generator: Adobe Illustrator 19.0.0, SVG Export Plug-In . SVG Version: 6.00 Build 0)  -->
<svg version="1.1" id="Capa_1" xmlns="http://www.w3.org/2000/svg" xmlns:xlink="http://www.w3.org/1999/xlink" x="0px" y="0px"
	 viewBox="0 0 512 512" style="enable-background:new 0 0 512 512;" xml:space="preserve">
<g>
	<g>
		<g>
			<path d="M464,56H48C21.49,56,0,77.49,0,104v288c0,26.51,21.49,48,48,48h208v-32H48c-8.837,0-16-7.163-16-16V107.68l214.72,153.28
				c5.555,3.955,13.005,3.955,18.56,0L480,107.68V264h32V104C512,77.49,490.51,56,464,56z M256,228.32L59.52,88h392.96L256,228.32z"
				/>
			<polygon points="416,264 384,264 384,344 304,344 304,376 384,376 384,456 416,456 416,376 496,376 496,344 416,344 			"/>
		</g>
	</g>
</g>
<g>
</g>
<g>
</g>
<g>
</g>
<g>
</g>
<g>
</g>
<g>
</g>
<g>
</g>
<g>
</g>
<g>
</g>
<g>
</g>
<g>
</g>
<g>
</g>
<g>
</g>
<g>
</g>
<g>
</g>
</svg>
